PathFileType  4	(X/Y/Z) C:\Users\antoi\Documents\MyRepositories\mobilecap\ResultsAnalysis
DataRate	CameraRate	NumFrames	NumMarkers	Units	OrigDataRate	OrigDataStartFrame	OrigNumFrames
100.0	100.0	6	51	mm	100.0	119	158
Frame#	Time	r_knee			r_shank_antsup			r_ankle			r_calc			r_5meta			r_toe			L_knee			L_shank_antsup			L_ankle			L_calc			L_5meta			L_toe			r_sh2			r_sh3			r_sh4			L_sh2			L_sh3			r_thigh1			r_thigh2			r_thigh3			r_thigh4			r_thigh5			L_thigh1			L_thigh2			L_thigh3			L_thigh4			r.ASIS			r.PSIS			L.ASIS			L.PSIS			C7			R_Shoulder			L_Shoulder			R_Sternum			L_Sternum			R_humerus			R_elbow_med			R_elbow_lat			R_forearm			R_wrist_radius			R_wrist_ulna			L_humerus			L_elbow_med			L_elbow_lat			L_forearm			L_wrist_radius			L_wrist_ulna			R_HJC			L_HJC			R_HJC_reg			L_HJC_reg			
		X1	Y1	Z1	X2	Y2	Z2	X3	Y3	Z3	X4	Y4	Z4	X5	Y5	Z5	X6	Y6	Z6	X7	Y7	Z7	X8	Y8	Z8	X9	Y9	Z9	X10	Y10	Z10	X11	Y11	Z11	X12	Y12	Z12	X13	Y13	Z13	X14	Y14	Z14	X15	Y15	Z15	X16	Y16	Z16	X17	Y17	Z17	X18	Y18	Z18	X19	Y19	Z19	X20	Y20	Z20	X21	Y21	Z21	X22	Y22	Z22	X23	Y23	Z23	X24	Y24	Z24	X25	Y25	Z25	X26	Y26	Z26	X27	Y27	Z27	X28	Y28	Z28	X29	Y29	Z29	X30	Y30	Z30	X31	Y31	Z31	X32	Y32	Z32	X33	Y33	Z33	X34	Y34	Z34	X35	Y35	Z35	X36	Y36	Z36	X37	Y37	Z37	X38	Y38	Z38	X39	Y39	Z39	X40	Y40	Z40	X41	Y41	Z41	X42	Y42	Z42	X43	Y43	Z43	X44	Y44	Z44	X45	Y45	Z45	X46	Y46	Z46	X47	Y47	Z47	X48	Y48	Z48	X49	Y49	Z49	X50	Y50	Z50	X51	Y51	Z51	

119	1.18000000	1296.59505	618.59815	-64.45941	1358.09418	484.80942	-71.36411	1398.65771	115.95844	-82.39125	1352.32806	74.33419	-144.50557	1546.07174	104.63476	-55.24219	1572.79314	148.27460	-104.14558	1026.49306	590.96275	-340.69892	1025.88674	387.40020	-297.05036	876.24501	113.38255	-285.09844	812.75746	82.69868	-221.96792	1010.53301	35.02961	-321.52092	1052.74960	60.81364	-261.32816	1384.72975	375.25522	-78.98874	1297.34002	464.47783	-29.26795	1320.57953	353.63521	-28.99043	970.31336	402.41341	-361.72636	932.99913	293.49726	-337.62133	1229.42008	897.49344	-29.62051	1281.71402	799.91225	-41.08379	1235.84904	750.00937	-24.84917	1129.06913	849.75766	-42.73582	1181.49967	744.14035	-42.44895	1148.92750	872.61230	-365.88942	1122.14758	742.03432	-351.81775	1042.88528	894.33941	-390.22426	1019.15652	759.26693	-383.55149	1191.50888	1163.31139	-74.94003	1002.02026	1190.27466	-155.94213	1181.14500	1153.75920	-353.80697	1000.35279	1193.61187	-249.99238	1064.21035	1682.38915	-219.41508	1123.20588	1633.10359	-43.69916	1130.20041	1649.59192	-394.38988	1201.49268	1591.94892	-186.73450	1204.86575	1592.87666	-244.70345	1075.38802	1364.93979	23.62988	976.15398	1262.33932	-18.99781	985.33004	1282.83041	50.42968	1077.98177	1086.97395	75.28563	1112.44514	997.49612	71.01152	1082.43377	994.62853	95.03237	1136.06349	1356.78730	-458.94948	1044.83473	1276.79453	-418.91724	1070.40653	1276.77154	-492.70369	1188.86604	1105.58367	-507.18310	1233.28293	1039.07250	-495.31407	1210.47867	1033.52661	-521.71662	1113.52659	1066.46364	-108.89437	1098.89845	1065.22818	-305.82454	1121.38788	1068.12473	-116.90918	1118.12305	1074.65854	-301.05140	
120	1.19000000	1304.74120	616.45958	-64.74470	1368.28824	483.84173	-71.92127	1416.42929	115.91931	-85.73593	1371.31127	74.15743	-148.48280	1563.99299	106.82254	-57.65836	1590.15222	151.31032	-106.05653	1033.06459	590.50622	-340.57605	1030.02225	386.71906	-297.11342	876.97170	114.52345	-285.14138	813.27643	84.28410	-221.95192	1010.65527	34.92877	-321.58724	1052.88727	60.56025	-261.34899	1397.15109	374.90675	-80.18885	1307.52533	462.12450	-30.73453	1332.81844	351.70066	-31.24787	974.61146	402.55015	-361.74178	935.99148	294.12028	-337.62422	1238.60791	895.60134	-29.63467	1290.60045	797.83672	-40.99184	1244.33826	747.89187	-24.84663	1138.18393	848.41738	-43.12268	1190.17229	742.58891	-42.91855	1157.41976	871.44186	-366.07383	1129.98677	741.00668	-351.97780	1051.39771	893.65383	-390.13808	1026.91247	758.86462	-383.50086	1202.12559	1161.92086	-74.72224	1012.51342	1188.96088	-155.63465	1191.48880	1152.59932	-353.62101	1010.76847	1192.36578	-249.61730	1075.45820	1681.41060	-218.12921	1134.40743	1631.42815	-42.74447	1140.84487	1648.73172	-393.27716	1212.50899	1590.53409	-185.88629	1215.75221	1591.54875	-243.86368	1086.72187	1363.16385	24.24202	987.34309	1260.61560	-18.39403	996.68421	1280.94714	51.08089	1089.57697	1085.12386	75.41456	1124.01733	995.62371	70.80038	1094.22021	992.68932	94.96243	1146.34216	1355.98838	-458.28808	1055.23007	1275.98086	-418.19272	1080.69566	1276.05056	-492.05370	1198.91910	1104.75808	-506.95596	1243.27506	1038.19478	-495.26940	1220.46961	1032.70569	-521.62094	1124.07411	1065.10706	-108.72501	1109.28816	1064.02777	-305.64435	1131.93781	1066.76978	-116.70943	1128.51852	1073.44145	-300.86594	
121	1.20000000	1313.20020	614.49256	-65.18061	1378.40452	482.74704	-72.67277	1432.09626	115.64655	-89.16589	1388.14177	73.94493	-152.63031	1579.61699	108.13527	-59.78749	1605.56037	153.28268	-107.66271	1039.97704	590.07811	-340.40457	1034.42063	386.08605	-297.11309	877.82870	115.81516	-285.18076	813.87819	86.11645	-221.93996	1010.78969	34.85795	-321.62328	1053.02978	60.31113	-261.30734	1408.95147	374.32250	-81.54792	1317.55325	459.93733	-32.40244	1344.38380	349.86197	-33.62911	979.21345	402.73437	-361.70752	939.19943	294.84796	-337.59585	1248.04241	893.80996	-29.46681	1299.76419	795.93247	-40.80745	1253.17465	746.01417	-24.99226	1147.55368	847.11953	-43.67883	1199.26430	741.16876	-43.61771	1166.15200	870.30048	-366.19526	1138.06784	740.01826	-352.08141	1060.13768	893.05200	-390.02374	1034.92607	758.45679	-383.39008	1212.82374	1160.60496	-74.44008	1023.14256	1187.68093	-155.28898	1201.98315	1151.48280	-353.40063	1021.31054	1191.16624	-249.19978	1086.73094	1680.47538	-216.77763	1145.66178	1629.79921	-41.73916	1151.49271	1647.93867	-392.05871	1223.56208	1589.16731	-184.98999	1226.69516	1590.27242	-242.96771	1098.11076	1361.42389	24.88886	998.61571	1258.91774	-17.77518	1008.09501	1279.09730	51.75579	1101.25204	1083.30834	75.59326	1135.63788	993.81509	70.66142	1105.97718	990.76912	94.94866	1156.63986	1355.25319	-457.56575	1065.63253	1275.24953	-417.36598	1090.96598	1275.40441	-491.29759	1208.83403	1103.92326	-506.66818	1253.10572	1037.27942	-495.18161	1230.28456	1031.87567	-521.46938	1134.74185	1063.80866	-108.50089	1119.82454	1062.87103	-305.41112	1142.63827	1065.43506	-116.45798	1139.04494	1072.27071	-300.64606	
122	1.21000000	1322.07796	612.72599	-65.78852	1388.50129	481.50374	-73.65176	1445.65896	115.02896	-92.59088	1402.74554	73.52498	-156.78726	1593.00143	108.47608	-61.73372	1619.02197	154.10048	-109.11515	1047.23253	589.66134	-340.19564	1039.09404	385.50675	-297.05696	878.82308	117.26791	-285.21994	814.56910	88.20580	-221.93069	1010.92857	34.81995	-321.62693	1053.19220	60.05154	-261.21230	1420.16323	373.44728	-83.08282	1327.49175	457.91596	-34.24481	1355.32621	348.08912	-36.07576	984.11827	402.96999	-361.62445	942.62135	295.67904	-337.54603	1257.75904	892.13492	-29.11932	1309.24714	794.21511	-40.58832	1262.39453	744.34138	-25.29989	1157.22062	845.87176	-44.38123	1208.81554	739.90530	-44.54639	1175.14640	869.18721	-366.23425	1146.41184	739.05565	-352.12982	1069.12713	892.52431	-389.87235	1043.22281	758.05608	-383.20762	1223.61709	1159.34757	-74.09986	1033.92206	1186.45773	-154.90421	1212.62150	1150.39855	-353.15347	1031.99126	1190.03427	-248.74581	1098.02442	1679.57731	-215.36703	1156.95708	1628.23071	-40.67836	1162.14516	1647.21882	-390.73186	1234.64843	1587.85832	-184.03951	1237.68939	1589.05463	-242.01130	1109.54131	1359.73118	25.56889	1009.97416	1257.25296	-17.13683	1019.55306	1277.30095	52.45054	1112.97754	1081.55305	75.79708	1147.31001	992.08344	70.59038	1117.69976	988.89732	94.99238	1166.97424	1354.58667	-456.78043	1076.03655	1274.61397	-416.45123	1101.22209	1274.84369	-490.44382	1218.61314	1103.08888	-506.32128	1262.77368	1036.33788	-495.04694	1239.92297	1031.04678	-521.26055	1145.52146	1062.56830	-108.22806	1130.49013	1061.76149	-305.13032	1153.47675	1064.12290	-116.15697	1149.68576	1071.14455	-300.39527	
123	1.22000000	1331.46580	611.17762	-66.57255	1398.60907	480.09079	-74.86239	1457.15514	114.00670	-95.91149	1415.07839	72.77312	-160.78295	1604.25387	107.79560	-63.63305	1630.56747	153.71268	-110.59750	1054.82455	589.23751	-339.97015	1044.04539	384.97356	-296.96824	879.95276	118.89255	-285.27214	815.35701	90.55947	-221.92987	1011.06563	34.81301	-321.60189	1053.38857	59.75998	-261.08242	1430.80164	372.23812	-84.78786	1337.37985	456.05401	-36.22467	1365.66429	346.35240	-38.53462	989.31453	403.26089	-361.50423	946.25941	296.61150	-337.49240	1267.76959	890.57892	-28.62472	1319.08749	792.68338	-40.38620	1272.01499	742.82652	-25.77679	1167.22344	844.68401	-45.20873	1218.82158	738.80968	-45.67496	1184.40403	868.10690	-366.18346	1155.02758	738.10824	-352.13201	1078.37351	892.05453	-389.67632	1051.81482	757.66543	-382.94675	1234.53262	1158.12892	-73.71111	1044.85828	1185.30181	-154.48024	1223.39255	1149.33688	-352.88299	1042.82468	1188.97829	-248.25850	1109.34430	1678.71085	-213.90684	1168.28256	1626.72928	-39.55706	1172.82875	1646.57097	-389.30695	1245.77243	1586.61248	-183.02493	1248.73509	1587.90109	-240.98851	1121.00114	1358.09347	26.28548	1021.41397	1255.62953	-16.47206	1031.04624	1275.57012	53.16455	1124.70987	1079.87701	75.99662	1159.03093	990.43218	70.58491	1129.42757	987.10534	95.09626	1177.35681	1353.98660	-455.93064	1086.43782	1274.08164	-415.46368	1111.47092	1274.37316	-489.50456	1228.26454	1102.26234	-505.91837	1272.27708	1035.37634	-494.85979	1249.38776	1030.22200	-520.99750	1156.41484	1061.37893	-107.91386	1141.27234	1060.69758	-304.80826	1164.43911	1062.83276	-115.81706	1160.44210	1070.05806	-300.12154	
124	1.23000000	1341.41265	609.84426	-67.52299	1408.73114	478.49370	-76.28842	1466.66977	112.57717	-99.03382	1425.14336	71.63328	-164.46610	1613.52862	106.09931	-65.62875	1640.26757	152.11785	-112.29581	1062.74755	588.78981	-339.75436	1049.27451	384.46626	-296.87603	881.21291	120.69858	-285.35677	816.25017	93.18393	-221.95056	1011.19848	34.83330	-321.55669	1053.62585	59.41581	-260.93940	1440.87204	370.67373	-86.64463	1347.23517	454.33928	-38.28620	1375.40787	344.62852	-40.95252	994.79517	403.60599	-361.36623	950.12592	297.64088	-337.45556	1278.07707	889.13207	-28.03675	1329.31311	791.31700	-40.23845	1282.03781	741.42690	-26.41862	1177.59098	843.56620	-46.14048	1229.24107	737.86874	-46.94595	1193.90544	867.06664	-366.05326	1163.91194	737.17179	-352.10563	1087.87451	891.62884	-389.43519	1060.70339	757.27892	-382.60722	1245.60723	1156.93312	-73.28681	1055.95215	1184.21168	-154.01716	1234.28492	1148.29478	-352.59047	1053.82401	1187.99365	-247.73665	1120.70246	1677.87281	-212.40629	1179.63239	1625.29357	-38.37102	1183.59089	1645.98610	-387.80384	1256.94179	1585.42748	-181.93440	1259.83774	1586.81501	-239.89314	1132.48101	1356.51383	27.04701	1032.92320	1254.05617	-15.77391	1042.56417	1273.90765	53.90152	1136.40736	1078.28898	76.16812	1170.78945	988.85415	70.64720	1141.22106	985.41945	95.26265	1187.79146	1353.44549	-455.01676	1096.83504	1273.65272	-414.41755	1121.72041	1273.99162	-488.49304	1237.80056	1101.44853	-505.46391	1281.61362	1034.39386	-494.61730	1258.68672	1029.39706	-520.68762	1167.43777	1060.23091	-107.56638	1152.16822	1059.67552	-304.45157	1175.51827	1061.56603	-115.45369	1171.33102	1069.00640	-299.83449	
